<mxfile host="app.diagrams.net" agent="Mozilla/5.0 (Windows NT 10.0; Win64; x64) AppleWebKit/537.36 (KHTML, like Gecko) Chrome/130.0.0.0 Safari/537.36" version="24.8.6">
  <diagram name="Page-1" id="fRfgBuuNZVQ_U8t8CYqR">
    <mxGraphModel dx="1674" dy="746" grid="1" gridSize="10" guides="1" tooltips="1" connect="1" arrows="1" fold="1" page="1" pageScale="1" pageWidth="850" pageHeight="1100" math="0" shadow="0">
      <root>
        <mxCell id="0" />
        <mxCell id="1" parent="0" />
        <mxCell id="B6epGFHpPmpgxB0K8m7q-1" value="平山县腾东信息咨询服务有限公司" style="rounded=1;whiteSpace=wrap;html=1;" vertex="1" parent="1">
          <mxGeometry x="350" y="130" width="120" height="60" as="geometry" />
        </mxCell>
        <mxCell id="B6epGFHpPmpgxB0K8m7q-15" style="edgeStyle=orthogonalEdgeStyle;rounded=0;orthogonalLoop=1;jettySize=auto;html=1;entryX=0.5;entryY=1;entryDx=0;entryDy=0;" edge="1" parent="1" source="B6epGFHpPmpgxB0K8m7q-2" target="B6epGFHpPmpgxB0K8m7q-10">
          <mxGeometry relative="1" as="geometry" />
        </mxCell>
        <mxCell id="B6epGFHpPmpgxB0K8m7q-2" value="天津海鑫融资租赁有限公司" style="rounded=1;whiteSpace=wrap;html=1;" vertex="1" parent="1">
          <mxGeometry x="350" y="376" width="120" height="60" as="geometry" />
        </mxCell>
        <mxCell id="B6epGFHpPmpgxB0K8m7q-4" value="河北骐进融资担保有限公司" style="rounded=1;whiteSpace=wrap;html=1;" vertex="1" parent="1">
          <mxGeometry x="350" y="260" width="120" height="60" as="geometry" />
        </mxCell>
        <mxCell id="B6epGFHpPmpgxB0K8m7q-17" style="edgeStyle=orthogonalEdgeStyle;rounded=0;orthogonalLoop=1;jettySize=auto;html=1;entryX=0.5;entryY=0;entryDx=0;entryDy=0;" edge="1" parent="1" source="B6epGFHpPmpgxB0K8m7q-6" target="B6epGFHpPmpgxB0K8m7q-10">
          <mxGeometry relative="1" as="geometry" />
        </mxCell>
        <mxCell id="B6epGFHpPmpgxB0K8m7q-18" value="交付车辆" style="edgeLabel;html=1;align=center;verticalAlign=middle;resizable=0;points=[];" vertex="1" connectable="0" parent="B6epGFHpPmpgxB0K8m7q-17">
          <mxGeometry x="-0.225" y="3" relative="1" as="geometry">
            <mxPoint as="offset" />
          </mxGeometry>
        </mxCell>
        <mxCell id="B6epGFHpPmpgxB0K8m7q-6" value="经销商A" style="rounded=1;whiteSpace=wrap;html=1;" vertex="1" parent="1">
          <mxGeometry x="140" y="160" width="120" height="60" as="geometry" />
        </mxCell>
        <mxCell id="B6epGFHpPmpgxB0K8m7q-13" style="edgeStyle=orthogonalEdgeStyle;rounded=0;orthogonalLoop=1;jettySize=auto;html=1;entryX=0;entryY=0.5;entryDx=0;entryDy=0;exitX=0.5;exitY=1;exitDx=0;exitDy=0;" edge="1" parent="1" source="B6epGFHpPmpgxB0K8m7q-10" target="B6epGFHpPmpgxB0K8m7q-2">
          <mxGeometry relative="1" as="geometry" />
        </mxCell>
        <mxCell id="B6epGFHpPmpgxB0K8m7q-10" value="承租人" style="rounded=1;whiteSpace=wrap;html=1;" vertex="1" parent="1">
          <mxGeometry x="10" y="280" width="120" height="60" as="geometry" />
        </mxCell>
        <mxCell id="B6epGFHpPmpgxB0K8m7q-11" value="中铁建金融租赁有限公司" style="rounded=1;whiteSpace=wrap;html=1;" vertex="1" parent="1">
          <mxGeometry x="577" y="260" width="120" height="60" as="geometry" />
        </mxCell>
        <mxCell id="B6epGFHpPmpgxB0K8m7q-19" value="1.融资租赁合同&lt;br&gt;2.附条件合同" style="text;html=1;align=center;verticalAlign=middle;whiteSpace=wrap;rounded=0;" vertex="1" parent="1">
          <mxGeometry x="106" y="390" width="120" height="30" as="geometry" />
        </mxCell>
        <mxCell id="B6epGFHpPmpgxB0K8m7q-23" style="edgeStyle=orthogonalEdgeStyle;rounded=0;orthogonalLoop=1;jettySize=auto;html=1;entryX=0.567;entryY=1.017;entryDx=0;entryDy=0;entryPerimeter=0;" edge="1" parent="1" source="B6epGFHpPmpgxB0K8m7q-10" target="B6epGFHpPmpgxB0K8m7q-11">
          <mxGeometry relative="1" as="geometry">
            <Array as="points">
              <mxPoint x="70" y="500" />
              <mxPoint x="645" y="500" />
            </Array>
          </mxGeometry>
        </mxCell>
        <mxCell id="B6epGFHpPmpgxB0K8m7q-24" value="融资租赁合同" style="text;html=1;align=center;verticalAlign=middle;whiteSpace=wrap;rounded=0;" vertex="1" parent="1">
          <mxGeometry x="185" y="464" width="90" height="40" as="geometry" />
        </mxCell>
        <mxCell id="B6epGFHpPmpgxB0K8m7q-25" value="抵押合同" style="text;html=1;align=center;verticalAlign=middle;whiteSpace=wrap;rounded=0;" vertex="1" parent="1">
          <mxGeometry x="319" y="469" width="60" height="30" as="geometry" />
        </mxCell>
      </root>
    </mxGraphModel>
  </diagram>
</mxfile>
